<?xml version="1.0" encoding="UTF-8" standalone="no"?>
<svg 
    role="img" 
    xmlns="http://www.w3.org/2000/svg" 
    width="1000mm"
    height="1000mm"
    viewBox="0 0 1000 1000"
    style="max-width:1.6em; height: auto;">
    
    <path 
        id="path" 
        style="opacity:1;vector-effect:none;fill:#000000;fill-opacity:1;"
        d="M 275 60C 257 60 241 70 232 85C 232 85 7 475 7 475C -2 490 -2 510 7 525C 7 525 232 915 232 915C 241 930 257 940 275 940C 275 940 725 940 725 940C 743 940 759 930 768 915C 768 915 993 525 993 525C 1002 510 1002 490 993 475C 993 475 768 85 768 85C 759 70 743 60 725 60C 725 60 275 60 275 60C 275 60 275 60 275 60M 275 85C 275 85 275 85 275 85C 275 85 725 85 725 85C 734 85 742 90 747 98C 747 98 972 487 972 487C 976 495 976 505 972 513C 972 513 747 902 747 902C 742 910 734 915 725 915C 725 915 275 915 275 915C 266 915 258 910 253 902C 253 902 28 513 28 513C 28 513 28 513 28 513C 24 505 24 495 28 487C 28 487 28 487 28 487C 28 487 253 98 253 98C 258 90 266 85 275 85C 275 85 275 85 275 85 M 0,0"
        transform="">
    </path>    
</svg>